<svg xmlns="http://www.w3.org/2000/svg" viewBox="0 0 24 24">
  <path d="M12 2C6.48 2 2 6.48 2 12v6c0 .55.45 1 1 1h8v-2H4v-3c0-2.76 2.24-5 5-5s5 2.24 5 5v3h-3v2h8c.55 0 1-.45 1-1v-6c0-5.52-4.48-10-10-10zm-7 6c-.83 0-1.5-.67-1.5-1.5S4.17 5 5 5s1.5.67 1.5 1.5S5.83 8 5 8zm7 0c-.83 0-1.5-.67-1.5-1.5S11.17 5 12 5s1.5.67 1.5 1.5S12.83 8 12 8zm7 0c-.83 0-1.5-.67-1.5-1.5S18.17 5 19 5s1.5.67 1.5 1.5S19.83 8 19 8zM5 10v2c0 1.93 1.57 3.5 3.5 3.5S12 13.93 12 12V10H5zm14 0v2c0 1.93 1.57 3.5 3.5 3.5S24 13.93 24 12V10h-7z"/>
</svg>